<svg class="animated" id="freepik_stories-gaming" xmlns="http://www.w3.org/2000/svg" xmlns:xlink="http://www.w3.org/1999/xlink" viewBox="0 0 500 500" version="1.1" xmlns:svgjs="http://svgjs.com/svgjs"><style>svg#freepik_stories-gaming:not(.animated) .animable {opacity: 0;}svg#freepik_stories-gaming.animated #freepik--Posters--inject-33 {animation: 1s 1 forwards cubic-bezier(.36,-0.01,.5,1.38) slideDown,3s Infinite  linear floating;animation-delay: 0s,1s;}            @keyframes slideDown {                0% {                    opacity: 0;                    transform: translateY(-30px);                }                100% {                    opacity: 1;                    transform: translateY(0);                }            }                    @keyframes floating {                0% {                    opacity: 1;                    transform: translateY(0px);                }                50% {                    transform: translateY(-10px);                }                100% {                    opacity: 1;                    transform: translateY(0px);                }            }        </style><g id="freepik--background-simple--inject-33" class="animable" style="transform-origin: 246.576px 242.189px;"><path d="M381.26,97.71c-27.35-18.92-60.69-26.43-97-11.51C248.34,100.94,229.38,137,198.18,158c-33.19,22.36-75.95,24-111.79,41.17-25.33,12.11-42.71,35-46.86,62.89-8.12,54.51,20.9,110.35,71.35,133.24,31.47,14.27,68.14,14.18,99.92.93,24.4-10.18,45.64-26.84,69.95-37.46C323,340.35,372,342.15,412.3,318.46c42.7-25.07,48.28-71,38.6-113.74C442.11,165.91,416.72,122.23,381.26,97.71Z" style="fill: rgb(146, 227, 169); transform-origin: 246.576px 242.189px;" id="els7voozkjg6" class="animable"></path><g id="el5f1359atn8f"><path d="M381.26,97.71c-27.35-18.92-60.69-26.43-97-11.51C248.34,100.94,229.38,137,198.18,158c-33.19,22.36-75.95,24-111.79,41.17-25.33,12.11-42.71,35-46.86,62.89-8.12,54.51,20.9,110.35,71.35,133.24,31.47,14.27,68.14,14.18,99.92.93,24.4-10.18,45.64-26.84,69.95-37.46C323,340.35,372,342.15,412.3,318.46c42.7-25.07,48.28-71,38.6-113.74C442.11,165.91,416.72,122.23,381.26,97.71Z" style="fill: rgb(255, 255, 255); opacity: 0.8; transform-origin: 246.576px 242.189px;" class="animable"></path></g></g><g id="freepik--Chair--inject-33" class="animable" style="transform-origin: 128.104px 319.687px;"><path d="M89,296.84h49s14.28,1.87,8.38,15.83h13a21.51,21.51,0,0,0,2.79-19.86c-4-11.48-17.38-13.65-17.38-13.65H93S80.26,284.43,89,296.84Z" style="fill: rgb(38, 50, 56); stroke: rgb(38, 50, 56); stroke-linecap: round; stroke-linejoin: round; stroke-width: 1.1326px; transform-origin: 124.689px 295.915px;" id="eleqf4u3emdyq" class="animable"></path><path d="M200.54,365.41c-5.17-16-12.7-28.21-10.82-46.07.8-7.55,4-14.89,4.29-22.46.69-20.72-25.13-20.52-31.55-38.18-5.64-15.51-6.11-22.09-17.39-22.56s-49.36-4.7-58.29-2.35-15.52,24-23,33.37-16.45,22.57-10.34,40S68,347.54,68.91,367.29s.94,38.54.94,38.54H204.77S205.71,381.39,200.54,365.41Zm-58.76-55H106.05a12.7,12.7,0,0,1,0-25.39h35.73a12.7,12.7,0,0,1,0,25.39Z" style="fill: rgb(146, 227, 169); stroke: rgb(38, 50, 56); stroke-linecap: round; stroke-linejoin: round; stroke-width: 1.1326px; transform-origin: 128.126px 319.457px;" id="eln0ihuiyy07r" class="animable"></path><path d="M68.85,259.06c8.7,4.54,21.42,13.43,29,29a12.63,12.63,0,0,1,8.21-3.05h35.73a12.62,12.62,0,0,1,9.3,4.11l.27.18c4-6.85,9.75-15.62,16.27-22.52a22.77,22.77,0,0,1-5.16-8.09c-5.64-15.51-6.11-22.09-17.39-22.56s-49.36-4.7-58.29-2.35C79.91,235.59,74.43,248.79,68.85,259.06Z" style="fill: rgb(38, 50, 56); stroke: rgb(38, 50, 56); stroke-linecap: round; stroke-linejoin: round; stroke-width: 1.1326px; transform-origin: 118.24px 261.187px;" id="elbl8glqkvea" class="animable"></path><path d="M93.53,406.3h98.68c-.71-8.93-2.44-30-3.9-42.3-1.88-16-2.82-26.33-7.52-31S146.48,306.18,138,305.24c0,0-24.45-1.88-32-.47s-23,25.85-23,30.08C83,338.86,94,380,93.53,406.3Z" style="fill: rgb(38, 50, 56); stroke: rgb(38, 50, 56); stroke-linecap: round; stroke-linejoin: round; stroke-width: 1.1326px; transform-origin: 137.605px 355.273px;" id="eltstlefwv3d" class="animable"></path><path d="M74.08,363.06c-1.41-19.75-16.45-65.34-19.74-72.86a12.75,12.75,0,0,1-.35-7.43,33.19,33.19,0,0,0-.59,24.35c6.11,17.39,14.57,40.42,15.51,60.17s.94,38.54.94,38.54h3.91C74.17,396,75.25,379.39,74.08,363.06Z" style="fill: rgb(38, 50, 56); stroke: rgb(38, 50, 56); stroke-linecap: round; stroke-linejoin: round; stroke-width: 1.1326px; transform-origin: 62.9895px 344.3px;" id="elsnw0llncqqm" class="animable"></path><path d="M156.35,333.91c-5.64-8.93-24-4.7-38.55-5.17s-16,3.76-16,11.75c0,6.79,7.13,51.93,9.27,65.34H171C171,379.58,161.73,342.43,156.35,333.91Z" style="fill: rgb(146, 227, 169); stroke: rgb(38, 50, 56); stroke-linecap: round; stroke-linejoin: round; stroke-width: 1.1326px; transform-origin: 136.4px 366.986px;" id="elsogz5pencv" class="animable"></path><path d="M137.21,328.17c-6.1.12-12.76.73-18.81.59,2.57,8.32,12.62,42.84,13.49,77.07h18.88C149.8,390.21,146.68,355.9,137.21,328.17Z" style="fill: rgb(255, 255, 255); stroke: rgb(38, 50, 56); stroke-linecap: round; stroke-linejoin: round; stroke-width: 1.1326px; transform-origin: 134.585px 367px;" id="elgkz9436f1pm" class="animable"></path></g><g id="freepik--Posters--inject-33" class="animable animator-active" style="transform-origin: 294.122px 169.595px;"><g id="elil7qnm7nibb"><rect x="153.01" y="80.51" width="107.64" height="140.09" style="fill: rgb(146, 227, 169); transform-origin: 206.83px 150.555px; transform: rotate(4.05deg);" class="animable"></rect></g><g id="elluiq5u3r9rf"><rect x="136.78" y="96.74" width="140.09" height="107.64" style="fill: rgb(255, 255, 255); opacity: 0.5; transform-origin: 206.825px 150.56px; transform: rotate(-85.95deg);" class="animable"></rect></g><path d="M236.87,185.22,172.44,180a3.49,3.49,0,0,1-3.2-3.76L174,116.42a3.49,3.49,0,0,1,3.75-3.2l64.43,5.19a3.49,3.49,0,0,1,3.2,3.75L240.63,182A3.49,3.49,0,0,1,236.87,185.22Z" style="fill: rgb(255, 255, 255); transform-origin: 207.31px 149.22px;" id="el5zpz62dlseu" class="animable"></path><g id="ellzm2rbwshih"><path d="M209.63,154.74a3.07,3.07,0,1,1,2.21,2.6A3.08,3.08,0,0,1,209.63,154.74Z" style="opacity: 0.08; transform-origin: 212.68px 154.387px;" class="animable"></path></g><g id="elyel64q2nw8"><path d="M198.54,153.86a3.07,3.07,0,1,1,2.2,2.59A3.06,3.06,0,0,1,198.54,153.86Z" style="opacity: 0.08; transform-origin: 201.589px 153.5px;" class="animable"></path></g><g id="el5ft3h9o0lha"><path d="M177.57,163.52a5.85,5.85,0,1,1,4.21,4.94A5.86,5.86,0,0,1,177.57,163.52Z" style="opacity: 0.08; transform-origin: 183.38px 162.833px;" class="animable"></path></g><g id="el0hkh8syjhj3"><path d="M222.62,167.23a5.84,5.84,0,1,1,4.21,4.94A5.86,5.86,0,0,1,222.62,167.23Z" style="opacity: 0.08; transform-origin: 228.42px 166.551px;" class="animable"></path></g><g id="elmzx83q15btr"><polygon points="213.41 167.94 208.42 167.54 208.82 162.54 204 162.16 203.6 167.15 198.6 166.75 198.22 171.57 203.21 171.97 202.81 176.97 207.63 177.35 208.03 172.36 213.03 172.76 213.41 167.94" style="opacity: 0.08; transform-origin: 205.815px 169.755px;" class="animable"></polygon></g><g id="el5sfwsk24far"><path d="M234.18,148.61l-53.26-4.38a1.9,1.9,0,0,1-1.75-2l1.7-20.66a1.91,1.91,0,0,1,2-1.76l53.26,4.39a1.89,1.89,0,0,1,1.75,2L236.14,147A1.82,1.82,0,0,1,234.18,148.61Z" style="opacity: 0.08; transform-origin: 208.525px 134.212px;" class="animable"></path></g><g id="elxcj4bxctazj"><path d="M163.44,84.63l-9.07,125.11,96.12,7,9.07-125.1Zm83.06,126-87.32-6.33,8.24-113.65L254.75,97Z" style="fill: rgb(255, 255, 255); opacity: 0.7; transform-origin: 206.965px 150.685px;" class="animable"></path></g><g id="el2fmk1wjmxl6"><rect x="325.53" y="117.08" width="107.64" height="140.09" style="fill: rgb(146, 227, 169); transform-origin: 379.35px 187.125px; transform: rotate(-5.87deg);" class="animable"></rect></g><g id="el9kza7lpwhk"><rect x="325.53" y="117.08" width="107.64" height="140.09" style="fill: rgb(255, 255, 255); opacity: 0.5; transform-origin: 379.35px 187.125px; transform: rotate(-5.87deg);" class="animable"></rect></g><g id="el7jyo7mkyu9t"><rect x="343.68" y="137.01" width="70.5" height="99.24" rx="3.52" style="fill: rgb(255, 255, 255); transform-origin: 378.93px 186.63px; transform: rotate(-5.82deg);" class="animable"></rect></g><g id="elehojz3rya05"><path d="M383.35,199.12a3.5,3.5,0,1,1,3,2.46A3.52,3.52,0,0,1,383.35,199.12Z" style="opacity: 0.08; transform-origin: 386.697px 198.097px;" class="animable"></path></g><g id="elfyylv4pefeb"><path d="M370.7,200.41a3.5,3.5,0,1,1,3,2.46A3.51,3.51,0,0,1,370.7,200.41Z" style="opacity: 0.08; transform-origin: 374.047px 199.387px;" class="animable"></path></g><g id="elq00zr5pz2s"><path d="M377.81,207.47a3.5,3.5,0,1,1,3,2.46A3.5,3.5,0,0,1,377.81,207.47Z" style="opacity: 0.08; transform-origin: 381.157px 206.447px;" class="animable"></path></g><g id="el1x31qiw3p0k"><polygon points="411.33 208.85 405.64 209.43 405.06 203.73 399.56 204.29 400.14 209.99 394.44 210.57 395 216.07 400.7 215.49 401.28 221.19 406.78 220.63 406.2 214.93 411.9 214.35 411.33 208.85" style="opacity: 0.08; transform-origin: 403.17px 212.46px;" class="animable"></polygon></g><g id="el45267tf9cix"><polygon points="369.74 213.09 364.04 213.67 363.46 207.98 357.96 208.54 358.54 214.23 352.84 214.81 353.4 220.31 359.1 219.73 359.68 225.43 365.18 224.87 364.6 219.17 370.3 218.59 369.74 213.09" style="opacity: 0.08; transform-origin: 361.57px 216.705px;" class="animable"></polygon></g><g id="ely0luthbloeb"><rect x="350.08" y="144.3" width="53.89" height="47.15" rx="1.83" style="opacity: 0.08; transform-origin: 377.025px 167.875px; transform: rotate(-5.82deg);" class="animable"></rect></g><g id="elro4iwa5phd"><rect x="376.17" y="221.67" width="13.86" height="7.61" style="opacity: 0.08; transform-origin: 383.1px 225.475px; transform: rotate(-5.82deg);" class="animable"></rect></g></g><g id="freepik--Character--inject-33" class="animable" style="transform-origin: 202.179px 309.186px;"><path d="M224.19,319.58s4.33,1.93,8.66,9.63,65.33,42.33,66.3,52,4.26,11.12-8.26,13-30.11-11-51.3-22.6S208.3,361,208.3,361Z" style="fill: rgb(255, 255, 255); stroke: rgb(38, 50, 56); stroke-linecap: round; stroke-linejoin: round; stroke-width: 1.1326px; transform-origin: 254.284px 356.987px;" id="elkusnsatc8oh" class="animable"></path><path d="M286.54,370.74s-13.48,1.74-18.26,7.39,2.59,14.48,7.16,16.15,18.49.37,22.4-7,.87-9.13-4.35-13" style="fill: rgb(255, 255, 255); stroke: rgb(38, 50, 56); stroke-linecap: round; stroke-linejoin: round; stroke-width: 1.1326px; transform-origin: 283.172px 382.834px;" id="elaukbx7wxn4f" class="animable"></path><path d="M275.33,383.28s-5,3.79-6.15,4.85-2.84,5.68-4,6.5-5.44,1.54-5.92,2.72,3.79,2.49,7.1,2.37,5.91-4,9.1-5.44a19.84,19.84,0,0,1,6.51-1.54s2.95-6.5,1.77-9.1S278,381.39,275.33,383.28Z" style="fill: rgb(255, 255, 255); stroke: rgb(38, 50, 56); stroke-linecap: round; stroke-linejoin: round; stroke-width: 1.1326px; transform-origin: 271.621px 390.752px;" id="eltvxnxotwosq" class="animable"></path><path d="M287.19,376.3a9,9,0,0,0-3.19,0,55.93,55.93,0,0,0-7.58,1.62c-1.23.62-3.13,8.43-4.05,12.12s-4.57,10.34-3,10.65,5.44,1.18,6.1-1.19c1.07-3.78,3.44-10.81,3.44-10.81s-1.85,6.77-.93,8,15.69.92,17.54.3,6.15-8.61,6.46-12.92C302.21,380.4,291.84,377.19,287.19,376.3Z" style="fill: rgb(255, 255, 255); stroke: rgb(38, 50, 56); stroke-linecap: round; stroke-linejoin: round; stroke-width: 1.1326px; transform-origin: 285.483px 388.631px;" id="elkc3kc4y5idg" class="animable"></path><line x1="284.31" y1="397.23" x2="288.1" y2="382.45" style="fill: none; stroke: rgb(38, 50, 56); stroke-linecap: round; stroke-linejoin: round; stroke-width: 1.1326px; transform-origin: 286.205px 389.84px;" id="elq44dstw3eo" class="animable"></line><line x1="292.35" y1="397" x2="295.9" y2="383.05" style="fill: none; stroke: rgb(38, 50, 56); stroke-linecap: round; stroke-linejoin: round; stroke-width: 1.1326px; transform-origin: 294.125px 390.025px;" id="elnax4dshv18" class="animable"></line><line x1="278.88" y1="388.67" x2="280.76" y2="381.98" style="fill: none; stroke: rgb(38, 50, 56); stroke-linecap: round; stroke-linejoin: round; stroke-width: 1.1326px; transform-origin: 279.82px 385.325px;" id="elcg0dq1ebnr" class="animable"></line><path d="M250.67,339.8c-14.9-13.24-31.65-31.15-50.95-37.58a40,40,0,0,1-13.6-7.55s-13.57-9.62-22.16-10.09c-9.83-.55-17.42,9.85-22,17.31-20.36,33.27-23,71.75-23.78,110H208.3s-5.24-8.11.48-31.47a97.44,97.44,0,0,1,4.16-13.05c1.67.72,3.51,1.49,5.47,2.3,8.18,3.37,27,14,27,14l21.17-30.71S255,343.66,250.67,339.8Z" style="fill: rgb(255, 255, 255); stroke: rgb(38, 50, 56); stroke-linecap: round; stroke-linejoin: round; stroke-width: 1.1326px; transform-origin: 192.38px 348.225px;" id="elgl484oavx0t" class="animable"></path><path d="M168.46,290.86c-2.64-4.71-8.38-9.56-17.37-4.38-11.64,6.7-46.25,75.81-48.63,86.3S148.7,390,167.77,390a347.16,347.16,0,0,0,35.35-1.87l3.75,2.34s0,9.06,3.34,10,13.83,1,17.16-.95,2.39-7.15,2.39-7.15,2.38,10.49,6.19,11.44a8.15,8.15,0,0,0,3.86.06,1.78,1.78,0,0,0,.91-2.92l-1-1.19-6.59-14.54s-1.82-7.86-4.2-7.86-21.54-.25-21.54-.25-32.42-3.81-46.25-7.63S140,360.33,140,360.33l26.52-43.26" style="fill: rgb(255, 255, 255); transform-origin: 171.775px 344.162px;" id="elh813s9m4htd" class="animable"></path><g style="clip-path: url(&quot;#freepik--clip-path--inject-33&quot;); transform-origin: 159.117px 358.04px;" id="el1vrm24sk7im" class="animable"><path d="M202.28,384.11c-7.16-.84-29.08-.42-57.33-4.22s-35-10.54-29.51-12.22,24-5.48,25.3-5.48-23.61-4.64-23.61-4.64l13.41-42.41c-13,22.63-26.62,51.2-28.08,57.64C100.07,383.27,148.7,390,167.77,390a347.16,347.16,0,0,0,35.35-1.87l3.75,2.34s0,9.06,3.34,10a16.54,16.54,0,0,0,3,.47,7.66,7.66,0,0,0,2.6-4.57C216.52,391.87,209.45,385,202.28,384.11Z" style="fill: rgb(146, 227, 169); transform-origin: 159.117px 358.04px;" id="eluty2rwb2nb9" class="animable"></path><g id="elybiiev99jme"><path d="M202.28,384.11c-7.16-.84-29.08-.42-57.33-4.22s-35-10.54-29.51-12.22,24-5.48,25.3-5.48-23.61-4.64-23.61-4.64l13.41-42.41c-13,22.63-26.62,51.2-28.08,57.64C100.07,383.27,148.7,390,167.77,390a347.16,347.16,0,0,0,35.35-1.87l3.75,2.34s0,9.06,3.34,10a16.54,16.54,0,0,0,3,.47,7.66,7.66,0,0,0,2.6-4.57C216.52,391.87,209.45,385,202.28,384.11Z" style="fill: rgb(255, 255, 255); opacity: 0.5; transform-origin: 159.117px 358.04px;" class="animable"></path></g></g><path d="M168.46,290.86c-2.64-4.71-8.38-9.56-17.37-4.38-11.64,6.7-46.25,75.81-48.63,86.3S148.7,390,167.77,390a347.16,347.16,0,0,0,35.35-1.87l3.75,2.34s0,9.06,3.34,10,13.83,1,17.16-.95,2.39-7.15,2.39-7.15,2.38,10.49,6.19,11.44a8.15,8.15,0,0,0,3.86.06,1.78,1.78,0,0,0,.91-2.92l-1-1.19-6.59-14.54s-1.82-7.86-4.2-7.86-21.54-.25-21.54-.25-32.42-3.81-46.25-7.63S140,360.33,140,360.33l26.52-43.26" style="fill: none; stroke: rgb(38, 50, 56); stroke-linecap: round; stroke-linejoin: round; stroke-width: 1.1326px; transform-origin: 171.775px 344.162px;" id="ellqang22qk3b" class="animable"></path><path d="M222.23,385.06s3.54,10.38,3.54,12.08a8.79,8.79,0,0,1-.85,3.4" style="fill: none; stroke: rgb(38, 50, 56); stroke-linecap: round; stroke-linejoin: round; stroke-width: 1.1326px; transform-origin: 224px 392.8px;" id="eluz2nvhym4k" class="animable"></path><path d="M216.15,386.66s3.39,9.63,3.68,11.61a3,3,0,0,1-.85,2.83" style="fill: none; stroke: rgb(38, 50, 56); stroke-linecap: round; stroke-linejoin: round; stroke-width: 1.1326px; transform-origin: 218.027px 393.88px;" id="elr3re7aix0uk" class="animable"></path><line x1="229.76" y1="392.33" x2="227.47" y2="383.55" style="fill: none; stroke: rgb(38, 50, 56); stroke-linecap: round; stroke-linejoin: round; stroke-width: 1.1326px; transform-origin: 228.615px 387.94px;" id="eln5tnrndfrq" class="animable"></line><path d="M206.87,390.42l4.74,1.62s2.84,1.42.57,3.4" style="fill: rgb(255, 255, 255); stroke: rgb(38, 50, 56); stroke-linecap: round; stroke-linejoin: round; stroke-width: 1.1326px; transform-origin: 209.965px 392.93px;" id="elceb6fjj54i" class="animable"></path><path d="M170.27,292.09s-2.54-8.5-12.74-8.78S140,294.92,135.16,302s-17.55,34.54-19,37.94-9.62,18.12-9.62,18.12,4.24,4,14.44,4h22.37s.84-.29,1.41-2.83a19.16,19.16,0,0,0,.57-3.4l25.48-42.19" style="fill: rgb(255, 255, 255); stroke: rgb(38, 50, 56); stroke-linecap: round; stroke-linejoin: round; stroke-width: 1.1326px; transform-origin: 138.675px 322.683px;" id="el7g0xqk8zdwt" class="animable"></path><line x1="239.83" y1="390.53" x2="241.85" y2="395.59" style="fill: none; stroke: rgb(38, 50, 56); stroke-linecap: round; stroke-linejoin: round; stroke-width: 1.1326px; transform-origin: 240.84px 393.06px;" id="elrscvdspion" class="animable"></line><line x1="241.35" y1="386.99" x2="243.88" y2="393.06" style="fill: none; stroke: rgb(38, 50, 56); stroke-linecap: round; stroke-linejoin: round; stroke-width: 1.1326px; transform-origin: 242.615px 390.025px;" id="eljwtqparzihe" class="animable"></line><polyline points="223.94 346.39 212.94 367.36 230.03 352.05" style="fill: none; stroke: rgb(38, 50, 56); stroke-linecap: round; stroke-linejoin: round; stroke-width: 1.1326px; transform-origin: 221.485px 356.875px;" id="elwwz58n4l7q" class="animable"></polyline><path d="M199.72,302.22a40,40,0,0,1-13.6-7.55s-2.24-1.59-5.47-3.5c1.79,8.77,7.26,34,11.56,38.27,4.13,4.13,12.88-13.52,16.36-23.44A61,61,0,0,0,199.72,302.22Z" style="fill: rgb(255, 255, 255); stroke: rgb(38, 50, 56); stroke-linecap: round; stroke-linejoin: round; stroke-width: 1.1326px; transform-origin: 194.61px 310.613px;" id="eley4duin2nqn" class="animable"></path><ellipse cx="227.11" cy="270.37" rx="12.09" ry="15.5" style="fill: rgb(255, 255, 255); stroke: rgb(38, 50, 56); stroke-linecap: round; stroke-linejoin: round; stroke-width: 1.1326px; transform-origin: 227.11px 270.37px;" id="elpgq644lztqs" class="animable"></ellipse><path d="M186.7,266.9s-1.74,19.67-.58,27.77,5.78,33.55,9.25,26.61S211,291.78,211,291.78,190.17,276.16,186.7,266.9Z" style="fill: rgb(255, 255, 255); transform-origin: 198.361px 294.683px;" id="elv8l9nb2g1i" class="animable"></path><g style="clip-path: url(&quot;#freepik--clip-path-2--inject-33&quot;); transform-origin: 198.341px 288.115px;" id="elqcwt0h6bqoh" class="animable"><path d="M186.7,266.9s-1.74,19.67-.58,27.77c.45,3.2,1.46,9.11,2.71,14.66l14.3-7.84,6-6.3,1.83-3.41S190.17,276.16,186.7,266.9Z" style="fill: rgb(146, 227, 169); transform-origin: 198.341px 288.115px;" id="elktvjwjw9acf" class="animable"></path><g id="elwmtt8h64c7"><path d="M186.7,266.9s-1.74,19.67-.58,27.77c.45,3.2,1.46,9.11,2.71,14.66l14.3-7.84,6-6.3,1.83-3.41S190.17,276.16,186.7,266.9Z" style="fill: rgb(255, 255, 255); opacity: 0.5; transform-origin: 198.341px 288.115px;" class="animable"></path></g></g><path d="M186.7,266.9s-1.74,19.67-.58,27.77,5.78,33.55,9.25,26.61S211,291.78,211,291.78,190.17,276.16,186.7,266.9Z" style="fill: none; stroke: rgb(38, 50, 56); stroke-linecap: round; stroke-linejoin: round; stroke-width: 1.1326px; transform-origin: 198.361px 294.683px;" id="eld2j40iapgk7" class="animable"></path><path d="M183.22,263.43s-4-24.3-.57-33.56,16.2-13.88,31.24-9.25,23.72,9.25,26,19.67-5.78,16.78-5.78,16.78-6.95-16.2-15-17.94-15.62-2.31-14.46,3.47,1.74,13.31-1.73,16.2-4.05,4.05-5.79,8.68-6.94,9.26-11,4S183.22,263.43,183.22,263.43Z" style="fill: rgb(38, 50, 56); stroke: rgb(38, 50, 56); stroke-linecap: round; stroke-linejoin: round; stroke-width: 1.1326px; transform-origin: 210.778px 246.309px;" id="elgeze090txn8" class="animable"></path><path d="M187.27,265.16s-1.15-7.52-6.36-4.62,2.31,13.88,2.31,13.88a42.06,42.06,0,0,0,8.68,21.41C200,306.24,214,307.65,222,301c9-7.48,13.3-41.65,13.3-41.65s3.47-4.63-4-16.2-33-11.57-34.71-6.94,5.21,13.88,3.47,17.35-6.94-.57-8.1,5.79S189.59,270.37,187.27,265.16Z" style="fill: rgb(255, 255, 255); transform-origin: 207.588px 269.184px;" id="elsuje8o4a1q" class="animable"></path><g style="clip-path: url(&quot;#freepik--clip-path-3--inject-33&quot;); transform-origin: 206.791px 269.165px;" id="elu0woa020ffj" class="animable"><path d="M231.24,243.18c-7.52-11.57-33-11.57-34.71-6.94s5.21,13.88,3.47,17.35-6.94-.57-8.1,5.79-2.31,11-4.63,5.78c0,0-1.15-7.52-6.36-4.62s2.31,13.88,2.31,13.88a42.06,42.06,0,0,0,8.68,21.41,23.09,23.09,0,0,0,21.07,9,29,29,0,0,1-9.84-3.38c-8-4.64-10.12-13.49-7.59-23.19s8.43-33.3,11.4-35.7,5-.55,11.36,5.35,9.7,5.48,9.7,5.48l6.51-4.21A38.77,38.77,0,0,0,231.24,243.18Z" style="fill: rgb(146, 227, 169); transform-origin: 206.791px 269.165px;" id="elnvxrxngq0u" class="animable"></path><g id="el8a6u4lrzaip"><path d="M231.24,243.18c-7.52-11.57-33-11.57-34.71-6.94s5.21,13.88,3.47,17.35-6.94-.57-8.1,5.79-2.31,11-4.63,5.78c0,0-1.15-7.52-6.36-4.62s2.31,13.88,2.31,13.88a42.06,42.06,0,0,0,8.68,21.41,23.09,23.09,0,0,0,21.07,9,29,29,0,0,1-9.84-3.38c-8-4.64-10.12-13.49-7.59-23.19s8.43-33.3,11.4-35.7,5-.55,11.36,5.35,9.7,5.48,9.7,5.48l6.51-4.21A38.77,38.77,0,0,0,231.24,243.18Z" style="fill: rgb(255, 255, 255); opacity: 0.5; transform-origin: 206.791px 269.165px;" class="animable"></path></g></g><path d="M187.27,265.16s-1.15-7.52-6.36-4.62,2.31,13.88,2.31,13.88a42.06,42.06,0,0,0,8.68,21.41C200,306.24,214,307.65,222,301c9-7.48,13.3-41.65,13.3-41.65s3.47-4.63-4-16.2-33-11.57-34.71-6.94,5.21,13.88,3.47,17.35-6.94-.57-8.1,5.79S189.59,270.37,187.27,265.16Z" style="fill: none; stroke: rgb(38, 50, 56); stroke-linecap: round; stroke-linejoin: round; stroke-width: 1.1326px; transform-origin: 207.588px 269.184px;" id="elsx7cmqkct5k" class="animable"></path><path d="M209.39,285.18c-7.31-1.59-8.9-7-8.9-7" style="fill: none; stroke: rgb(38, 50, 56); stroke-linecap: round; stroke-linejoin: round; stroke-width: 1.1326px; transform-origin: 204.94px 281.68px;" id="el9btvu0qvlys" class="animable"></path><path d="M211.3,269.92c-3.5-3.49-6.68-3.81-6.68-3.81" style="fill: none; stroke: rgb(38, 50, 56); stroke-linecap: round; stroke-linejoin: round; stroke-width: 1.1326px; transform-origin: 207.96px 268.015px;" id="el6e4j3wl52y8" class="animable"></path><line x1="202.4" y1="277.55" x2="197.94" y2="278.51" style="fill: none; stroke: rgb(38, 50, 56); stroke-linecap: round; stroke-linejoin: round; stroke-width: 1.1326px; transform-origin: 200.17px 278.03px;" id="elgxpsnp27m5e" class="animable"></line><path d="M200.49,278.19a8.69,8.69,0,0,0-1.59,6.68c.59,3.94,5.06,4.91,5.06,4.91s.34-5.23,2.89-4.91C206.85,284.87,201.76,282,200.49,278.19Z" style="fill: none; stroke: rgb(38, 50, 56); stroke-linecap: round; stroke-linejoin: round; stroke-width: 1.1326px; transform-origin: 202.811px 283.985px;" id="el9yz9y2vzf3" class="animable"></path><path d="M200,278.42s-.69,6.61,4,8.35" style="fill: none; stroke: rgb(38, 50, 56); stroke-linecap: round; stroke-linejoin: round; stroke-width: 0.566302px; transform-origin: 201.982px 282.595px;" id="elwga0vhrs0xd" class="animable"></path><path d="M225.51,260.47s-4.82,4.82-4.82,10.07,4.82,8.76.88,10.08-5.26.43-5.26.43" style="fill: none; stroke: rgb(38, 50, 56); stroke-linecap: round; stroke-linejoin: round; stroke-width: 1.1326px; transform-origin: 220.91px 270.907px;" id="elulc3jrt1ff" class="animable"></path><path d="M211.2,266.05c-.41,1.62-1,.9-1.81.69s-1.59.18-1.18-1.44,1.41-2.78,2.23-2.57S211.6,264.42,211.2,266.05Z" style="fill: rgb(38, 50, 56); transform-origin: 209.732px 264.893px;" id="eloqnm0cy31wg" class="animable"></path><path d="M227.84,268.67c-.41,1.63-1.41,2.78-2.23,2.57s-1.17-1.69-.76-3.32,1.41-2.77,2.23-2.57S228.25,267.05,227.84,268.67Z" style="fill: rgb(38, 50, 56); transform-origin: 226.345px 268.296px;" id="elsw7y9lhlokk" class="animable"></path><path d="M204.93,255.22s6.07-1.88,11.91,6.08" style="fill: none; stroke: rgb(38, 50, 56); stroke-linecap: round; stroke-linejoin: round; stroke-width: 1.1326px; transform-origin: 210.885px 258.163px;" id="elpu6qnbbfe5" class="animable"></path><path d="M227.26,259.16s4.38-1.75,5.26,2.63" style="fill: none; stroke: rgb(38, 50, 56); stroke-linecap: round; stroke-linejoin: round; stroke-width: 1.1326px; transform-origin: 229.89px 260.302px;" id="elif9w4f0yet" class="animable"></path><path d="M196.53,236.24s2.89,5.2,10.41,6.36,16.78,0,18.52,6.37,9.83,13.88,19.09,9.83,10.41-22,4.63-29.5-12.73-6.37-19.67-9.26-6.94-8.1-17.36-8.1-22.56,9.83-15.62,15.62" style="fill: rgb(38, 50, 56); stroke: rgb(38, 50, 56); stroke-linecap: round; stroke-linejoin: round; stroke-width: 1.1326px; transform-origin: 223.601px 235.942px;" id="elgv8t2utfz76" class="animable"></path><ellipse cx="184.49" cy="264.37" rx="12.09" ry="15.5" style="fill: rgb(255, 255, 255); stroke: rgb(38, 50, 56); stroke-linecap: round; stroke-linejoin: round; stroke-width: 1.1326px; transform-origin: 184.49px 264.37px;" id="el3nj0n6dgcq3" class="animable"></ellipse><ellipse cx="182.59" cy="264.44" rx="8.72" ry="11.19" style="fill: rgb(38, 50, 56); stroke: rgb(38, 50, 56); stroke-linecap: round; stroke-linejoin: round; stroke-width: 1.1326px; transform-origin: 182.59px 264.44px;" id="el2tqqeydqebn" class="animable"></ellipse><path d="M180.91,262.8a2.25,2.25,0,0,1-2.24-1.95,70,70,0,0,1,.05-16,2.26,2.26,0,1,1,4.5.52,67.54,67.54,0,0,0-.07,14.89,2.25,2.25,0,0,1-1.93,2.55A1.67,1.67,0,0,1,180.91,262.8Z" style="fill: rgb(255, 255, 255); stroke: rgb(38, 50, 56); stroke-linecap: round; stroke-linejoin: round; stroke-width: 1.1326px; transform-origin: 180.736px 252.828px;" id="el0xy1ttpm3fs" class="animable"></path><path d="M227,218.83l0,0a17.18,17.18,0,0,0,2.43,1.25c4.18,1.74,8.37,2,12.3,3.61a3.91,3.91,0,0,0-.56-1.46c-5.49-8.71-21.53-22.42-42.94-12C186.32,216,179,227.9,177,244.62a4,4,0,0,0,3.48,4.4l.47,0a4,4,0,0,0,3.93-3.51c1.12-9.69,5-22.45,16.86-28.23C212.84,211.92,221.43,214.89,227,218.83Z" style="fill: rgb(255, 255, 255); stroke: rgb(38, 50, 56); stroke-linecap: round; stroke-linejoin: round; stroke-width: 1.1326px; transform-origin: 209.353px 227.751px;" id="elz2p4azrx48l" class="animable"></path></g><g id="freepik--Device--inject-33" class="animable" style="transform-origin: 258.9px 350.88px;"><rect x="182.96" y="401.55" width="140.5" height="5.67" style="fill: rgb(255, 255, 255); stroke: rgb(38, 50, 56); stroke-linecap: round; stroke-linejoin: round; stroke-width: 1.1326px; transform-origin: 253.21px 404.385px;" id="elmztmbo6m1sh" class="animable"></rect><rect x="222.57" y="401.55" width="140.5" height="5.67" style="fill: rgb(255, 255, 255); stroke: rgb(38, 50, 56); stroke-linecap: round; stroke-linejoin: round; stroke-width: 1.1326px; transform-origin: 292.82px 404.385px;" id="el4abjtu2h9v6" class="animable"></rect><path d="M139,392.4h20.74a8.63,8.63,0,0,1,8.63,8.63V411.4a0,0,0,0,1,0,0h-38a0,0,0,0,1,0,0V401A8.63,8.63,0,0,1,139,392.4Z" style="fill: rgb(146, 227, 169); stroke: rgb(38, 50, 56); stroke-linecap: round; stroke-linejoin: round; stroke-width: 1.1326px; transform-origin: 149.37px 401.9px;" id="el2jk263c0ofo" class="animable"></path><path d="M140,396.75h8.8a8.63,8.63,0,0,1,8.63,8.63v10.37a0,0,0,0,1,0,0H131.42a0,0,0,0,1,0,0V405.37A8.63,8.63,0,0,1,140,396.75Z" style="fill: rgb(38, 50, 56); stroke: rgb(38, 50, 56); stroke-linecap: round; stroke-linejoin: round; stroke-width: 1.1326px; transform-origin: 144.425px 406.25px;" id="elgeosbjeja2" class="animable"></path><path d="M140,399.46h5.55a8.63,8.63,0,0,1,8.63,8.63v3.86a0,0,0,0,1,0,0h-22.8a0,0,0,0,1,0,0v-3.86A8.63,8.63,0,0,1,140,399.46Z" style="fill: rgb(146, 227, 169); stroke: rgb(38, 50, 56); stroke-linecap: round; stroke-linejoin: round; stroke-width: 1.1326px; transform-origin: 142.78px 405.705px;" id="elovigriceev" class="animable"></path><rect x="267.17" y="285.84" width="129.76" height="99.06" style="fill: rgb(255, 255, 255); stroke: rgb(38, 50, 56); stroke-linecap: round; stroke-linejoin: round; stroke-width: 1.1326px; transform-origin: 332.05px 335.37px;" id="eln3waoktzqds" class="animable"></rect><rect x="272.53" y="285.84" width="129.76" height="99.06" style="fill: rgb(38, 50, 56); stroke: rgb(38, 50, 56); stroke-linecap: round; stroke-linejoin: round; stroke-width: 1.1326px; transform-origin: 337.41px 335.37px;" id="ellhh64fdltge" class="animable"></rect><rect x="324.5" y="349.89" width="30.24" height="57.32" style="fill: rgb(255, 255, 255); stroke: rgb(38, 50, 56); stroke-linecap: round; stroke-linejoin: round; stroke-width: 1.1326px; transform-origin: 339.62px 378.55px;" id="elwh9kpx1kbro" class="animable"></rect><rect x="57.84" y="405.33" width="402.12" height="10.59" style="fill: rgb(255, 255, 255); stroke: rgb(38, 50, 56); stroke-linecap: round; stroke-linejoin: round; stroke-width: 1.1326px; transform-origin: 258.9px 410.625px;" id="eltxeczxl0vda" class="animable"></rect><rect x="197.17" y="405.33" width="262.79" height="10.59" style="fill: rgb(38, 50, 56); stroke: rgb(38, 50, 56); stroke-linecap: round; stroke-linejoin: round; stroke-width: 1.1326px; transform-origin: 328.565px 410.625px;" id="elixn2wy55ld9" class="animable"></rect></g><defs>     <filter id="active" height="200%">         <feMorphology in="SourceAlpha" result="DILATED" operator="dilate" radius="2"></feMorphology>                <feFlood flood-color="#32DFEC" flood-opacity="1" result="PINK"></feFlood>        <feComposite in="PINK" in2="DILATED" operator="in" result="OUTLINE"></feComposite>        <feMerge>            <feMergeNode in="OUTLINE"></feMergeNode>            <feMergeNode in="SourceGraphic"></feMergeNode>        </feMerge>    </filter>    <filter id="hover" height="200%">        <feMorphology in="SourceAlpha" result="DILATED" operator="dilate" radius="2"></feMorphology>                <feFlood flood-color="#ff0000" flood-opacity="0.5" result="PINK"></feFlood>        <feComposite in="PINK" in2="DILATED" operator="in" result="OUTLINE"></feComposite>        <feMerge>            <feMergeNode in="OUTLINE"></feMergeNode>            <feMergeNode in="SourceGraphic"></feMergeNode>        </feMerge>            <feColorMatrix type="matrix" values="0   0   0   0   0                0   1   0   0   0                0   0   0   0   0                0   0   0   1   0 "></feColorMatrix>    </filter></defs><defs><clipPath id="freepik--clip-path--inject-33"><path d="M168.46,290.86c-2.64-4.71-8.38-9.56-17.37-4.38-11.64,6.7-46.25,75.81-48.63,86.3S148.7,390,167.77,390a347.16,347.16,0,0,0,35.35-1.87l3.75,2.34s0,9.06,3.34,10,13.83,1,17.16-.95,2.39-7.15,2.39-7.15,2.38,10.49,6.19,11.44a8.15,8.15,0,0,0,3.86.06,1.78,1.78,0,0,0,.91-2.92l-1-1.19-6.59-14.54s-1.82-7.86-4.2-7.86-21.54-.25-21.54-.25-32.42-3.81-46.25-7.63S140,360.33,140,360.33l26.52-43.26" style="fill:#fff;stroke:#263238;stroke-linecap:round;stroke-linejoin:round;stroke-width:1.1326043605804443px"></path></clipPath><clipPath id="freepik--clip-path-2--inject-33"><path d="M186.7,266.9s-1.74,19.67-.58,27.77,5.78,33.55,9.25,26.61S211,291.78,211,291.78,190.17,276.16,186.7,266.9Z" style="fill:#fff;stroke:#263238;stroke-linecap:round;stroke-linejoin:round;stroke-width:1.1326043605804443px"></path></clipPath><clipPath id="freepik--clip-path-3--inject-33"><path d="M187.27,265.16s-1.15-7.52-6.36-4.62,2.31,13.88,2.31,13.88a42.06,42.06,0,0,0,8.68,21.41C200,306.24,214,307.65,222,301c9-7.48,13.3-41.65,13.3-41.65s3.47-4.63-4-16.2-33-11.57-34.71-6.94,5.21,13.88,3.47,17.35-6.94-.57-8.1,5.79S189.59,270.37,187.27,265.16Z" style="fill:#fff;stroke:#263238;stroke-linecap:round;stroke-linejoin:round;stroke-width:1.1326043605804443px"></path></clipPath></defs></svg>